<?xml version="1.0" standalone="no"?><svg xmlns="http://www.w3.org/2000/svg" viewBox="0 0 1440 320"><path fill="#0099ff" fill-opacity="1" d="M0,32L48,64C96,96,192,160,288,181.3C384,203,480,181,576,170.7C672,160,768,160,864,181.3C960,203,1056,245,1152,234.7C1248,224,1344,160,1392,128L1440,96L1440,320L1392,320C1344,320,1248,320,1152,320C1056,320,960,320,864,320C768,320,672,320,576,320C480,320,384,320,288,320C192,320,96,320,48,320L0,320Z" data-darkreader-inline-fill="" style="--darkreader-inline-fill:#0d7ac1;"></path></svg>